<?xml version="1.0" encoding="utf-8"?>
<!-- Generator: Adobe Illustrator 15.0.0, SVG Export Plug-In . SVG Version: 6.00 Build 0)  -->
<!DOCTYPE svg PUBLIC "-//W3C//DTD SVG 1.1//EN" "http://www.w3.org/Graphics/SVG/1.1/DTD/svg11.dtd">
<svg class="section-logo" viewBox="100 -433 4608 3756" xmlns="http://www.w3.org/2000/svg">
	<defs>
	<clipPath id="a">
		<path d="M0 2592h3456V0H0z" stroke="black" />
	</clipPath>
	</defs>

	<g class="section-logo" transform="matrix(1.3333 0 0 -1.3333 0 3456)" clip-path="url(#a)">
		<path d="m1012.9 2556h385.55l97.786-1871.5h-46.317l-226.31 1593.9h-488.4zm1142.2 0h-385.57l-97.68-1871.5h46.254l226.08 1593.9h488.59z"/>
		<path  d="m1460.1 2550.9h246.83l-51.385-437.12h-143.91z" fill="none" stroke-width="20" />
		<path d="m247.75 918.33h-70.595v18.114h172.62v-18.114h-69.159v-139.46h-32.869zm242.27 22.105l19.612-110.77h0.909l42.707 77.435h8.804l42.706-77.435h0.971l20.099 110.77 33.29-2.429-36.754-163.14h-11.272l-53.431 97.151-53.496-97.151h-11.232l-36.774 163.14zm309.34-143.41h35.762v121.3h-35.762v18.114h104.94v-18.114h-36.269v-121.3h36.269v-18.156h-104.94zm261.33 139.42h40.702l99.052-132.83 0.993 0.632-2.935 40.829v91.368h32.828v-157.57h-40.723l-99.053 132.79-0.907-0.653 2.872-41.062v-91.072h-32.829zm824.59-139.42h35.784v121.3h-35.784v18.114h104.92v-18.114h-36.268v-121.3h36.268v-18.156h-104.92zm289.3 109.48h-0.949l-6.376-127.64h-34.814l10.241 157.57h43.127l46.129-68.399 46.126 68.399h43.067l10.323-157.57h-34.834l-6.354 127.64h-0.949l-57.379-83.218zm351.56 6.377l-36.354-72.96h72.685zm-45.157-91.115l-24.026-46.908-32.318 7.346 80.411 154.24h42.137l80.412-154.24-32.321-7.346-23.561 46.908zm425.62-28.457c-21.07-10.198-52.461-17.226-78.491-17.226-75.007 0-96.539 43.022-96.539 81.699 0 38.125 22.503 81.403 95.568 81.403 34.348 0 64.22-12.414 81.889-30.273l-27.907-11.125c-12.289 12.623-30.949 22.335-55.881 22.335-50.498 0-59.387-39.056-59.387-62.974 0-24.447 8.889-61.939 60.357-61.939 16.636 0 33.292 2.66 47.563 8.148v41.419h-61.305v18.156h94.133zm301.93 116.95h-176.15v21.068h176.15zm0-66.035h-176.15v21.068h176.15zm0-66.034h-176.15v21.047h176.15z"/>
		<path d="m3371.7 951.09c0-23.814-19.296-43.087-43.068-43.087-23.791 0-43.064 19.273-43.064 43.087 0 23.77 19.273 43.065 43.064 43.065 23.772 0 43.068-19.295 43.068-43.065z" fill="none" stroke="black" stroke-width="10"/>
		<text transform="matrix(1 0 0 -1 3306.1 923.38)" fill="black" font-family="Myriad" font-size="81.591" font-weight="400">
			<tspan x="0" y="0" stroke='black'>R</tspan>
		</text>
		<text class="section-logo" transform="matrix(1 0 0 -1 674.49 144.31)" fill="black" font-family="Arial" font-size="507.05" font-weight="400">
			<tspan x="0 366.08966 648.00916 986.21106 1127.1708 1521.6553" y="0" fill="black" >D SIGN</tspan>
		</text>
		<path class="section-logo"  fill="black"  d="m1305.1 450.55h-256.48v46.825h256.48zm0-146.97h-256.48v46.824h256.48zm0-146.97h-256.48v46.867h256.48z"/>
	</g>
</svg>